<svg width="116" height="82" xmlns="http://www.w3.org/2000/svg" fill="none">

 <g>
  <title>Layer 1</title>
  <g id="svg_23">
   <path id="svg_1" fill="#FFF1DA" d="m24.8052,32.9999c0,9.9412 8.0588,18 18,18l27,0c2.7614,0 5,-2.2385 5,-5l0,-34c0,-5.5228 -4.4772,-10 -10,-10l-35,0c-2.7615,0 -5,2.2386 -5,5l0,26z"/>
   <path id="svg_2" fill="#D5D6DB" d="m73.3891,46.9413c-1.3584,0.3043 -2.6814,0.8678 -3.8869,1.6552c-3.1408,2.0013 -4.9681,4.8581 -4.0812,6.3802c0.887,1.5221 4.1521,1.1328 7.2928,-0.8685c1.2218,-0.7596 2.3072,-1.7303 3.1894,-2.8523c0.4093,-0.5421 0.4828,-1.2176 0.1876,-1.7225l-1.1522,-1.9774c-0.2932,-0.5065 -0.9012,-0.7474 -1.5495,-0.6147z"/>
   <path id="svg_3" fill="#D5D6DB" d="m65.5021,19.9482c-0.985,0.2208 -1.9444,0.6296 -2.8187,1.2006c-2.2768,1.4508 -3.6026,3.5222 -2.96,4.625c0.6426,1.1028 3.0111,0.8203 5.2877,-0.6304c0.8859,-0.5511 1.6728,-1.2553 2.3126,-2.069c0.2965,-0.3929 0.3496,-0.8822 0.1356,-1.2483l-0.8342,-1.4318c-0.2123,-0.3672 -0.6529,-0.5422 -1.123,-0.4461z"/>
   <path id="svg_4" fill="#029BC5" d="m52.688,21.0787c-0.2193,-0.0245 -0.4531,0.0339 -0.6558,0.1634l-5.3482,3.4082c-0.4474,0.2843 -0.6264,0.8316 -0.3995,1.2228c0.0519,0.0896 0.123,0.1662 0.2092,0.2252l13.1816,9.0849l17.8337,-11.3647l-24.821,-2.7398z"/>
   <path id="svg_5" fill="#E1E6E9" d="m109.065,19.794l-48.5321,30.5521l-28.7128,11.4259l-14.6431,2.91l-1.611,-2.737l80.895,-49.9465c2.411,-1.4949 5.097,-2.4125 7.785,-2.6596c1.178,-0.1019 2.341,-0.0627 3.462,0.1161c0.994,0.1507 1.937,0.4414 2.8,0.8635c0.964,0.4782 2.799,0.5334 3.393,1.4862c0.002,-0.0015 1.404,4.3729 -4.836,7.9893z"/>
   <path id="svg_6" fill="#029BC5" d="m61.1762,46.3036l-20.9953,33.4704c-0.2622,0.47 -0.1065,0.996 0.3474,1.175c0.2785,0.11 0.6194,0.067 0.9058,-0.115l5.344,-3.39c1.0279,-0.653 1.938,-1.481 2.6742,-2.435l40.7167,-47.8686l-28.9928,19.1632z"/>
   <path id="svg_7" fill="#029BC5" d="m8.1966,45.1861c-0.3502,-0.1197 -0.767,-0.0576 -1.1188,0.1664l-4.4175,2.8134c-0.6019,0.3831 -0.8418,1.1195 -0.5359,1.6452c0.0583,0.0999 0.134,0.1879 0.2247,0.2603l12.3768,9.9124l13.013,-8.1281l-19.5423,-6.6696z"/>
   <path id="svg_8" fill="#029BC5" d="m18.8743,61.771l-6.6615,9.329c-0.0976,0.134 -0.0747,0.303 0.0513,0.376c0.0908,0.053 0.2148,0.043 0.3156,-0.024l4.1283,-2.616c0.032,-0.021 0.0611,-0.046 0.0851,-0.075l9.7335,-11.8349l-7.6523,4.8449z"/>
   <path id="svg_9" fill="#029BC5" d="m106.911,9.8572c-1.154,-0.1854 -2.352,-0.225 -3.565,-0.1184c-1.181,1.6511 -1.935,3.5058 -2.189,5.3792c-0.018,0.3763 0.285,0.6472 0.678,0.605c0.122,-0.0132 0.244,-0.0561 0.353,-0.1249l7.608,-4.8443c-0.89,-0.4386 -1.861,-0.7404 -2.885,-0.8966z"/>
   <path id="svg_10" fill="#D5D6DB" d="m90.332,18.7653l4.967,-3.1369l4.627,7.869l-4.967,3.1369l-4.627,-7.869z"/>
   <path id="svg_11" fill="#3A556A" d="m87.207,21.8775c-0.599,0.3792 -0.838,1.108 -0.534,1.6277l0.492,0.842c0.324,0.5064 1.063,0.5955 1.651,0.1988c0.56,-0.3778 0.786,-1.0645 0.516,-1.5715l-0.492,-0.842c-0.304,-0.5193 -1.035,-0.6335 -1.633,-0.255z"/>
   <path id="svg_12" fill="#3A556A" d="m82.742,24.65c-0.598,0.3791 -0.838,1.1079 -0.534,1.6277l0.493,0.8419c0.324,0.5065 1.063,0.5956 1.651,0.1989c0.56,-0.3778 0.785,-1.0645 0.516,-1.5715l-0.493,-0.842c-0.304,-0.5191 -1.034,-0.6334 -1.633,-0.255z"/>
   <path id="svg_13" fill="#3A556A" d="m78.276,27.4233c-0.597,0.3797 -0.836,1.1076 -0.532,1.6268l0.492,0.842c0.324,0.5065 1.063,0.5955 1.651,0.1988c0.56,-0.3778 0.786,-1.0644 0.516,-1.5714l-0.492,-0.842c-0.304,-0.5197 -1.036,-0.6335 -1.635,-0.2542z"/>
   <path id="svg_14" fill="#3A556A" d="m73.8121,30.1957c-0.5979,0.3797 -0.8363,1.1076 -0.5327,1.6269l0.4923,0.842c0.3239,0.5064 1.0631,0.5955 1.6514,0.1988c0.5598,-0.3778 0.7853,-1.0645 0.5155,-1.5715l-0.4923,-0.842c-0.3041,-0.5195 -1.0357,-0.6333 -1.6342,-0.2542z"/>
   <path id="svg_15" fill="#3A556A" d="m69.3481,32.9684c-0.5982,0.3798 -0.8368,1.108 -0.533,1.6275l0.4926,0.8424c0.3037,0.5192 1.035,0.6329 1.6333,0.254c0.5984,-0.379 0.8373,-1.1072 0.5336,-1.6265l-0.4926,-0.8423c-0.3029,-0.5198 -1.0339,-0.6343 -1.6326,-0.2559c-0.0005,0.0003 -0.0008,0.0005 -0.0013,0.0008z"/>
   <path id="svg_16" fill="#3A556A" d="m64.8837,35.7408c-0.5982,0.3799 -0.8367,1.1081 -0.5329,1.6276l0.4926,0.8423c0.3036,0.5193 1.0349,0.633 1.6333,0.254c0.5983,-0.379 0.8372,-1.1072 0.5336,-1.6264l-0.4926,-0.8424c-0.3029,-0.5197 -1.0339,-0.6342 -1.6327,-0.2559c-0.0005,0.0004 -0.001,0.0007 -0.0013,0.0008z"/>
   <path id="svg_17" fill="#3A556A" d="m60.4191,38.5134c-0.5982,0.3798 -0.8367,1.108 -0.5329,1.6275l0.4926,0.8423c0.3044,0.5188 1.036,0.6313 1.6337,0.2519c0.5967,-0.3789 0.8351,-1.1055 0.5329,-1.6242l-0.4926,-0.8423c-0.3036,-0.5196 -1.0348,-0.6339 -1.6337,-0.2552z"/>
   <path id="svg_18" fill="#3A556A" d="m55.9545,41.2859c-0.5982,0.3798 -0.8367,1.108 -0.5329,1.6275l0.4926,0.8424c0.3044,0.5188 1.036,0.6313 1.6337,0.2518c0.5967,-0.3788 0.8351,-1.1055 0.5329,-1.6241l-0.4926,-0.8424c-0.3036,-0.5196 -1.0348,-0.6339 -1.6337,-0.2552z"/>
   <path id="svg_19" fill="#3A556A" d="m51.4903,44.0583c-0.5982,0.3798 -0.8368,1.108 -0.533,1.6275l0.4926,0.8423c0.3044,0.5188 1.0361,0.6314 1.6338,0.2519c0.5967,-0.3789 0.8351,-1.1055 0.5328,-1.6241l-0.4926,-0.8423c-0.3038,-0.5195 -1.035,-0.6338 -1.6336,-0.2553z"/>
   <path id="svg_20" fill="#3A556A" d="m47.0245,46.8315c-0.5984,0.379 -0.8373,1.1072 -0.5336,1.6265l0.0006,0.0011l0.4926,0.8423c0.3044,0.5188 1.036,0.6314 1.6338,0.2519c0.5967,-0.3789 0.8351,-1.1055 0.5328,-1.6242l-0.4926,-0.8423c-0.3035,-0.5197 -1.0348,-0.634 -1.6336,-0.2553z"/>
   <path id="svg_21" fill="#3A556A" d="m42.5612,49.6032c-0.5983,0.379 -0.8372,1.1072 -0.5336,1.6264l0.0007,0.0011l0.4926,0.8423c0.3044,0.5188 1.036,0.6314 1.6337,0.2519c0.5968,-0.3788 0.8352,-1.1055 0.5329,-1.6241l-0.4926,-0.8423c-0.3038,-0.5195 -1.035,-0.6338 -1.6337,-0.2553z"/>
  </g>
 </g>
</svg>