<svg width="1170" height="407" xmlns="http://www.w3.org/2000/svg" fill="none">
 <defs>
  <linearGradient id="paint0_linear_1_459" x1="0.71004" y1="0.02671" x2="0.01799" y2="1.00931">
   <stop stop-color="#747DEF"/>
   <stop offset="1" stop-color="#5E3BE1"/>
  </linearGradient>
  <linearGradient id="paint1_linear_1_459" x1="0.7126" y1="0.02707" x2="0.02279" y2="1.00953">
   <stop stop-color="#747DEF"/>
   <stop offset="1" stop-color="#5E3BE1"/>
  </linearGradient>
 </defs>
 <g>
  <title>Layer 1</title>
  <g id="svg_21">
   <path opacity="0.2" d="m1171.83333,22c0,-11.0457 -8.95,-20 -20,-20l-1021,0c-71.245,0 -129,57.7553 -129,129l0,258c0,11.046 8.9543,20 20,20l1130,0c11.05,0 20,-8.954 20,-20l0,-367z" fill="#DFD7F9" id="svg_1"/>
   <g opacity="0.1" id="svg_2">
    <mask id="mask0_1_459" maskUnits="userSpaceOnUse" x="993" y="0" width="264" height="352">
     <path d="m993.5,0.5l239.5,0c12.98,0 23.5,10.5213 23.5,23.5l0,327.022l-213.5,0c-27.34,0 -49.5,-22.162 -49.5,-49.5l0,-301.022z" fill="url(#paint0_linear_1_459)" stroke="#6246E5" id="svg_3"/>
    </mask>
    <g mask="url(#mask0_1_459)" id="svg_4">
     <circle cx="1146.85333" cy="180.32" r="91.8033" stroke="#6246E5" id="svg_5"/>
     <circle cx="1139.56333" cy="170.604" r="102.734" stroke="#6246E5" id="svg_6"/>
     <circle cx="1133.49333" cy="162.709" r="112.45" stroke="#6246E5" id="svg_7"/>
     <circle cx="1127.41333" cy="151.171" r="120.952" stroke="#6246E5" id="svg_8"/>
     <circle cx="1121.64333" cy="139.937" r="129.14999" stroke="#6246E5" id="svg_9"/>
     <circle cx="1111.93333" cy="127.185" r="141.90199" stroke="#6246E5" id="svg_10"/>
    </g>
   </g>
   <g opacity="0.1" id="svg_11">
    <mask id="mask1_1_459" maskUnits="userSpaceOnUse" x="0" y="46" width="480" height="361">
     <rect x="479.5" y="46.5" width="360" height="479" transform="rotate(90 479.5 46.5)" fill="url(#paint1_linear_1_459)" stroke="#6246E5" id="svg_12"/>
    </mask>
    <g mask="url(#mask1_1_459)" id="svg_13">
     <path d="m151.33833,501.92c-69.333,0 -125.539,-56.285 -125.539,-125.718c0,-69.432 56.206,-125.718 125.539,-125.718c69.333,0 125.54,56.286 125.54,125.718c0,69.433 -56.207,125.718 -125.54,125.718z" stroke="#6246E5" id="svg_14"/>
     <path d="m164.60633,506.902c-77.576,0 -140.466,-62.977 -140.466,-140.665c0,-77.687 62.89,-140.664 140.466,-140.664c77.576,0 140.465,62.977 140.465,140.664c0,77.688 -62.889,140.665 -140.465,140.665z" stroke="#6246E5" id="svg_15"/>
     <path d="m175.38533,511.885c-84.903,0 -153.732,-68.926 -153.732,-153.951c0,-85.025 68.829,-153.951 153.732,-153.951c84.904,0 153.733,68.926 153.733,153.951c0,85.025 -68.829,153.951 -153.733,153.951z" stroke="#6246E5" id="svg_16"/>
     <path d="m191.14133,515.206c-91.315,0 -165.342,-74.13 -165.342,-165.576c0,-91.446 74.027,-165.576 165.342,-165.576c91.314,0 165.341,74.13 165.341,165.576c0,91.446 -74.027,165.576 -165.341,165.576z" stroke="#6246E5" id="svg_17"/>
     <path d="m206.48133,518.528c-97.498,0 -176.536,-79.15 -176.536,-176.787c0,-97.637 79.038,-176.786 176.536,-176.786c97.497,0 176.535,79.149 176.535,176.786c0,97.637 -79.038,176.787 -176.535,176.787z" stroke="#6246E5" id="svg_18"/>
     <path d="m223.89433,522.68c-107.114,0 -193.949,-86.957 -193.949,-194.224c0,-107.268 86.835,-194.224 193.949,-194.224c107.114,0 193.949,86.956 193.949,194.224c0,107.267 -86.835,194.224 -193.949,194.224z" stroke="#6246E5" id="svg_19"/>
    </g>
   </g>
  </g>
 </g>
</svg>